<svg width="24" height="24" viewBox="0 0 24 24" fill="none" xmlns="http://www.w3.org/2000/svg">
<rect width="24" height="24" rx="12" fill="white"/>
<path fill-rule="evenodd" clip-rule="evenodd" d="M11.9802 5.16699C10.9127 5.16699 10.0256 5.20505 9.30595 5.35232C8.57727 5.50145 7.97673 5.77105 7.52555 6.26532C7.07968 6.75376 6.8316 7.40527 6.68941 8.2131C6.54747 9.01947 6.50291 10.0319 6.50291 11.2863C6.50291 11.7704 6.50209 12.225 6.50132 12.6514L6.50132 12.6514C6.49768 14.6678 6.49517 16.0541 6.58609 16.9583C6.64033 17.4977 6.73388 17.9556 6.93956 18.2845C7.05017 18.4613 7.19707 18.6079 7.38781 18.7055C7.57514 18.8013 7.77293 18.8337 7.96225 18.8337C8.39476 18.8337 8.81415 18.5957 9.15268 18.3605C9.48315 18.1309 9.83101 17.8336 10.16 17.5525L10.16 17.5525L10.2379 17.486C10.6011 17.1759 10.9423 16.8896 11.2625 16.6794C11.5947 16.4613 11.8281 16.3777 11.9802 16.3777C12.1324 16.3777 12.3658 16.4613 12.698 16.6794C13.0182 16.8896 13.3594 17.1759 13.7226 17.486L13.8005 17.5525C14.1295 17.8336 14.4773 18.1309 14.8078 18.3605C15.1463 18.5957 15.5657 18.8337 15.9982 18.8337C16.1876 18.8337 16.3854 18.8013 16.5727 18.7055C16.7634 18.6079 16.9103 18.4613 17.0209 18.2845C17.2266 17.9556 17.3202 17.4977 17.3744 16.9583C17.4653 16.0541 17.4628 14.6679 17.4592 12.6514V12.6514L17.4592 12.6505C17.4584 12.2244 17.4576 11.7701 17.4576 11.2863C17.4576 10.0319 17.413 9.01947 17.2711 8.2131C17.1289 7.40527 16.8808 6.75376 16.4349 6.26532C15.9838 5.77105 15.3832 5.50145 14.6545 5.35232C13.9349 5.20505 13.0478 5.16699 11.9802 5.16699ZM7.50291 11.2863C7.50291 10.0418 7.54827 9.10226 7.67427 8.38645C7.80001 7.67208 7.99789 7.23114 8.26411 6.9395C8.52501 6.65369 8.90268 6.45558 9.50644 6.33202C10.1193 6.2066 10.9188 6.16699 11.9802 6.16699C13.0417 6.16699 13.8412 6.2066 14.4541 6.33202C15.0578 6.45558 15.4355 6.65369 15.6964 6.9395C15.9626 7.23114 16.1605 7.67208 16.2862 8.38645C16.4122 9.10226 16.4576 10.0418 16.4576 11.2863C16.4576 11.782 16.4584 12.2437 16.4591 12.6736V12.6743V12.6743C16.4625 14.6915 16.4648 16.0097 16.3794 16.8582C16.3268 17.3812 16.247 17.636 16.1731 17.7542C16.1439 17.8009 16.1244 17.8115 16.1172 17.8152C16.1066 17.8206 16.0749 17.8337 15.9982 17.8337C15.8991 17.8337 15.7027 17.7646 15.3784 17.5393C15.091 17.3396 14.7801 17.074 14.4387 16.7824L14.4387 16.7824L14.3719 16.7254C14.0158 16.4214 13.628 16.0937 13.2468 15.8434C12.8775 15.601 12.4371 15.3777 11.9802 15.3777C11.5234 15.3777 11.083 15.601 10.7137 15.8434C10.3325 16.0937 9.94469 16.4214 9.58864 16.7254L9.52181 16.7824L9.52177 16.7825C9.18041 17.074 8.86949 17.3396 8.58207 17.5393C8.25784 17.7646 8.0614 17.8337 7.96225 17.8337C7.88557 17.8337 7.85387 17.8206 7.84327 17.8152C7.83608 17.8115 7.8166 17.8009 7.7874 17.7542C7.71345 17.636 7.63366 17.3812 7.58107 16.8582C7.49574 16.0096 7.49798 14.6915 7.5014 12.6743C7.50213 12.2442 7.50291 11.7822 7.50291 11.2863ZM9.69507 9.64546C9.41893 9.64546 9.19507 9.86931 9.19507 10.1455C9.19507 10.4216 9.41893 10.6455 9.69507 10.6455H14.2651C14.5412 10.6455 14.7651 10.4216 14.7651 10.1455C14.7651 9.86931 14.5412 9.64546 14.2651 9.64546H9.69507Z" fill="#303030"/>
</svg>
