<?xml version="1.0" encoding="iso-8859-1"?>
<!-- Generator: Adobe Illustrator 19.0.0, SVG Export Plug-In . SVG Version: 6.00 Build 0)  -->
<svg version="1.1" id="Capa_1" xmlns="http://www.w3.org/2000/svg" xmlns:xlink="http://www.w3.org/1999/xlink" x="0px" y="0px"
	 viewBox="0 0 511.999 511.999" style="enable-background:new 0 0 511.999 511.999;" xml:space="preserve">
<g>
	<g>
		<path d="M417.623,29.185c0,0-123.239-26.446-177.119,25.77c-53.88,52.215-53.247,141.637-53.247,141.637L331.632,79.585
			l18.875,23.291L206.141,219.873c92.946,15.295,139.359-16.067,139.359-16.067C424.594,157.737,417.623,29.185,417.623,29.185z"/>
	</g>
</g>
<g>
	<g>
		<path d="M325.526,244.823v82.744h-29.976v-76.069c-12.281,1.838-25.239,2.758-38.749,2.758c-1.419,0-2.827-0.01-4.216-0.03v73.341
			h-29.976v-75.18c-24.93-2.648-42.196-7.224-43.206-7.504l-7.974-2.138v78.408c0,43.156,27.159,81.685,67.656,96.234v94.615h69.964
			v-94.815c13.739-5.046,26.34-13.06,37-23.711c19.315-19.324,29.956-45.004,29.956-72.322V219.403
			C361.568,230.465,344.641,238.987,325.526,244.823z"/>
	</g>
</g>
<g>
	<g>
		<path d="M105.451,7.072L94.97,9.9l-0.59,10.842c-0.21,3.936-4.576,96.833,50.67,141.597c4.336,3.507,9.023,6.694,14.019,9.553
			c0.549-5.156,1.259-10.612,2.158-16.257c0.419-2.658,0.879-5.365,1.389-8.103c0.509-2.768,1.059-5.505,1.639-8.214
			c3.447-16.107,8.063-31.126,13.789-44.835l-24.739-22.552l20.204-22.142l18.664,17.016c6.564-10.592,13.999-20.074,22.252-28.388
			c3.637-3.677,7.454-7.124,11.411-10.342c0.27-0.22,0.54-0.44,0.819-0.659c4.346-3.467,8.943-6.704,13.759-9.693
			C185.198-13.792,108.949,6.133,105.451,7.072z"/>
	</g>
</g>
<g>
</g>
<g>
</g>
<g>
</g>
<g>
</g>
<g>
</g>
<g>
</g>
<g>
</g>
<g>
</g>
<g>
</g>
<g>
</g>
<g>
</g>
<g>
</g>
<g>
</g>
<g>
</g>
<g>
</g>
</svg>
