<svg id="Capa_1" enable-background="new 0 0 512 512" height="512" viewBox="0 0 512 512" width="512" xmlns="http://www.w3.org/2000/svg"><g><path d="m256.006 120c-4.136 0-8.253-1.7-11.217-5.035-16.451-18.508-16.451-46.422 0-64.93 6.352-7.146 6.352-17.924 0-25.07-5.503-6.191-4.946-15.673 1.246-21.176 6.192-5.504 15.673-4.947 21.177 1.246 16.451 18.508 16.451 46.422 0 64.93-6.352 7.146-6.352 17.924 0 25.07 5.503 6.191 4.946 15.673-1.246 21.176-2.858 2.54-6.416 3.789-9.96 3.789z"/><path d="m186.006 120c-4.136 0-8.253-1.7-11.217-5.035-16.451-18.508-16.451-46.422 0-64.93 6.352-7.146 6.352-17.924 0-25.07-5.503-6.191-4.946-15.673 1.246-21.176 6.192-5.504 15.673-4.947 21.177 1.246 16.451 18.508 16.451 46.422 0 64.93-6.352 7.146-6.352 17.924 0 25.07 5.503 6.191 4.946 15.673-1.246 21.176-2.858 2.54-6.416 3.789-9.96 3.789z"/><path d="m326.006 120c-4.136 0-8.253-1.7-11.217-5.035-16.451-18.508-16.451-46.422 0-64.93 6.352-7.146 6.352-17.924 0-25.07-5.503-6.191-4.946-15.673 1.246-21.176 6.192-5.504 15.673-4.947 21.177 1.246 16.451 18.508 16.451 46.422 0 64.93-6.352 7.146-6.352 17.924 0 25.07 5.503 6.191 4.946 15.673-1.246 21.176-2.858 2.54-6.416 3.789-9.96 3.789z"/><g><path d="m467.154 140h13.846c16.569 0 30-13.431 30-30 0-16.568-13.431-30-30-30h-12.269c-27.939 0-52.181 19.285-58.464 46.508l-12.344 53.492h60z"/><g><path d="m1.453 229.232c1.985 13.898 5.105 27.525 9.27 40.769h490.555c4.165-13.243 7.284-26.869 9.27-40.767l.302-2.11c.615-4.305-.667-8.665-3.517-11.95s-6.984-5.174-11.333-5.174h-480c-4.349 0-8.483 1.888-11.333 5.173s-4.132 7.646-3.517 11.95z"/><g><path d="m152.32 460.607-10.55 31.65c-1.524 4.574-.757 9.603 2.062 13.514 2.819 3.912 7.346 6.229 12.168 6.229h200c4.822 0 9.35-2.317 12.168-6.229 2.819-3.911 3.586-8.939 2.062-13.514l-10.55-31.65c-32.812 12.706-67.936 19.393-103.68 19.393s-70.867-6.687-103.68-19.393z"/></g><path d="m22.258 300c15.178 33.112 37.33 62.889 65.268 87.119 46.754 40.55 106.586 62.881 168.474 62.881s121.72-22.331 168.474-62.881c27.938-24.23 50.091-54.007 65.268-87.119z"/></g></g></g></svg>